<svg width="19" height="36" viewBox="0 0 19 36" fill="none" xmlns="http://www.w3.org/2000/svg">
<path d="M2.70369 28.7121C2.04709 27.6057 0.91968 25.136 1.6604 22.1087C1.855 21.3107 2.19147 21.0413 2.3597 21.0073C2.37602 21.0048 2.39234 21.0035 2.40866 21.0035C2.63088 21.0035 2.85058 21.2817 2.91335 21.3673C3.60888 22.3252 3.96041 24.815 2.70369 28.7121ZM8.99231 18.2557C8.64455 18.1915 8.07457 18.1311 7.46316 18.0669C6.82915 18.0014 6.17254 17.9322 5.83984 17.8642C3.15691 17.3091 1.42312 15.1 1.42312 12.2363C1.42312 9.0454 4.04704 6.44985 7.29743 6.44985H7.29869C7.31752 6.44985 7.33761 6.44985 7.35644 6.44859C9.035 6.33656 10.9998 6.72048 11.8535 6.91307C11.9 7.74007 12.0695 12.0425 10.6332 13.3793C10.6106 13.3944 10.5893 13.4108 10.5667 13.4296C9.8523 14.0326 8.77386 13.9457 8.16496 13.2383L8.14362 13.2144C7.97287 13.0105 7.85486 12.7726 7.79334 12.5082C7.78832 12.4881 7.7833 12.4692 7.77702 12.4503C7.61883 11.9657 7.63013 11.5428 7.81092 11.1953C7.93772 10.9499 7.9101 10.6516 7.74061 10.4325C7.55982 10.1984 7.24722 10.1028 6.96599 10.1946C6.59437 10.3155 6.17756 10.2551 5.72685 10.0184C5.70927 10.0096 5.69044 10.0008 5.67161 9.99198C5.42303 9.8875 5.20834 9.73142 5.03509 9.52876L5.01626 9.50484C4.87062 9.32862 4.76391 9.12848 4.69737 8.91071C4.58312 8.53812 4.18765 8.32665 3.81603 8.4412C3.44316 8.55575 3.23224 8.95225 3.34649 9.32484C3.46702 9.71757 3.66036 10.0788 3.91773 10.3935L3.94911 10.4338C4.26298 10.8064 4.65092 11.0934 5.09284 11.2835C5.47952 11.4836 5.87123 11.6082 6.25916 11.6523C6.23782 12.0425 6.29432 12.4503 6.42489 12.8582C6.54039 13.334 6.75884 13.767 7.07773 14.1433C7.09405 14.1635 7.11162 14.1836 7.12418 14.195C8.22522 15.4399 10.1072 15.6035 11.394 14.5776C11.4279 14.5575 11.4606 14.5348 11.4894 14.5084C13.7568 12.5561 13.2822 6.91433 13.2207 6.27866C13.1918 5.98286 12.9809 5.73488 12.6947 5.66061C12.5754 5.62915 9.73178 4.87767 7.28237 5.03376C3.27367 5.03376 0.0119798 8.26497 0.0119798 12.2363C0.0119798 15.7457 2.23917 18.5653 5.55485 19.2501C5.9566 19.3332 6.64836 19.4062 7.31626 19.4754C7.8423 19.5308 8.4374 19.5925 8.73243 19.6479C11.3739 20.1426 12.9508 22.2283 12.9508 25.2254C12.9508 28.4163 10.362 31.0119 7.17942 31.0119C5.94279 31.0119 4.77019 30.6305 3.78088 29.9054C5.23596 25.7994 5.33891 22.3013 4.05332 20.534C3.52728 19.809 2.8079 19.4754 2.08601 19.6189C1.23731 19.7863 0.581959 20.5718 0.288181 21.7714C-0.89321 26.6 1.93158 30.1194 2.05336 30.268C2.06843 30.2856 2.08349 30.3019 2.09982 30.3183L2.11865 30.3372C1.58759 31.674 0.909637 33.0926 0.0998628 34.5578C-0.0884566 34.8989 0.0358334 35.3307 0.376064 35.5195C0.481523 35.5774 0.599537 35.6076 0.71755 35.6076C0.97492 35.6076 1.21095 35.4679 1.33524 35.2438C2.08977 33.8781 2.73634 32.54 3.26112 31.2649C4.42242 32.0264 5.77456 32.428 7.17942 32.428C11.1404 32.428 14.3632 29.1968 14.3632 25.2254C14.3632 21.5473 12.3055 18.8775 8.99231 18.2557ZM15.3487 9.17253C14.9922 9.52876 14.7951 10.0021 14.7938 10.5056C14.7925 11.0103 14.9871 11.4849 15.3412 11.8423C15.709 12.2112 16.1924 12.3975 16.677 12.3975C17.1566 12.3975 17.6374 12.2137 18.004 11.8486C18.3606 11.4924 18.5577 11.0191 18.5589 10.5156C18.5602 10.0109 18.3656 9.53631 18.0103 9.18009C17.2784 8.4412 16.0844 8.43868 15.3487 9.17253ZM8.79395 3.77375H8.79771C9.29864 3.77375 9.7707 3.57864 10.126 3.22493C10.4825 2.8687 10.6797 2.39541 10.6797 1.89191C10.6809 1.38715 10.4863 0.91386 10.1323 0.556375C9.77697 0.198889 9.30492 0.00126505 8.80273 6.05213e-06C8.31185 -0.00125262 7.82724 0.193854 7.47069 0.548822C7.11414 0.905049 6.91703 1.37834 6.91577 1.88184C6.91452 2.3866 7.10911 2.86115 7.46441 3.21738C7.81845 3.57486 8.2905 3.77249 8.79395 3.77375ZM15.3701 7.02762C15.7379 7.39769 16.2213 7.58273 16.7046 7.58273C17.1855 7.58273 17.6663 7.40021 18.0329 7.03391C18.3895 6.67895 18.5853 6.20565 18.5866 5.70089C18.5878 5.19739 18.3932 4.72284 18.0392 4.36536C17.3072 3.62773 16.1133 3.62521 15.3776 4.35907C14.6419 5.09292 14.6381 6.28999 15.3701 7.02762ZM14.6607 0.978057C14.3054 0.620571 13.8334 0.422947 13.3312 0.421688H13.3262C12.8252 0.421688 12.3544 0.616794 11.9991 0.971763C11.2634 1.70562 11.2597 2.90269 11.9916 3.64032C12.3595 4.01039 12.8428 4.19543 13.3262 4.19543C13.807 4.19543 14.2879 4.01291 14.6544 3.64661C15.3902 2.91276 15.3927 1.71569 14.6607 0.978057Z" fill="#1DC690"/>
</svg>
