<svg width="32" height="33" viewBox="0 0 32 33" fill="none" xmlns="http://www.w3.org/2000/svg">
<path fill-rule="evenodd" clip-rule="evenodd" d="M9.59997 2.6333C9.88287 2.6333 10.1542 2.74568 10.3542 2.94572C10.5543 3.14576 10.6666 3.41707 10.6666 3.69997V4.76663H21.3333V3.69997C21.3333 3.41707 21.4457 3.14576 21.6457 2.94572C21.8458 2.74568 22.1171 2.6333 22.4 2.6333C22.6829 2.6333 22.9542 2.74568 23.1542 2.94572C23.3543 3.14576 23.4666 3.41707 23.4666 3.69997V4.76663H26.6666C27.5153 4.76663 28.3293 5.10378 28.9294 5.70389C29.5295 6.30401 29.8666 7.11794 29.8666 7.96663V27.1666C29.8666 28.0153 29.5295 28.8293 28.9294 29.4294C28.3293 30.0295 27.5153 30.3666 26.6666 30.3666H5.3333C4.48461 30.3666 3.67068 30.0295 3.07056 29.4294C2.47044 28.8293 2.1333 28.0153 2.1333 27.1666V7.96663C2.1333 7.11794 2.47044 6.30401 3.07056 5.70389C3.67068 5.10378 4.48461 4.76663 5.3333 4.76663H8.5333V3.69997C8.5333 3.41707 8.64568 3.14576 8.84572 2.94572C9.04576 2.74568 9.31707 2.6333 9.59997 2.6333ZM21.3333 6.89997V7.96663C21.3333 8.24953 21.4457 8.52084 21.6457 8.72088C21.8458 8.92092 22.1171 9.0333 22.4 9.0333C22.6829 9.0333 22.9542 8.92092 23.1542 8.72088C23.3543 8.52084 23.4666 8.24953 23.4666 7.96663V6.89997H26.6666C26.9495 6.89997 27.2208 7.01235 27.4209 7.21239C27.6209 7.41243 27.7333 7.68374 27.7333 7.96663V11.1666H4.26663V7.96663C4.26663 7.68374 4.37901 7.41243 4.57905 7.21239C4.77909 7.01235 5.0504 6.89997 5.3333 6.89997H8.5333V7.96663C8.5333 8.24953 8.64568 8.52084 8.84572 8.72088C9.04576 8.92092 9.31707 9.0333 9.59997 9.0333C9.88287 9.0333 10.1542 8.92092 10.3542 8.72088C10.5543 8.52084 10.6666 8.24953 10.6666 7.96663V6.89997H21.3333ZM4.26663 13.3V27.1666C4.26663 27.4495 4.37901 27.7208 4.57905 27.9209C4.77909 28.1209 5.0504 28.2333 5.3333 28.2333H26.6666C26.9495 28.2333 27.2208 28.1209 27.4209 27.9209C27.6209 27.7208 27.7333 27.4495 27.7333 27.1666V13.3H4.26663ZM14.9333 16.5C14.9333 16.2171 15.0457 15.9458 15.2457 15.7457C15.4458 15.5457 15.7171 15.4333 16 15.4333C16.2829 15.4333 16.5542 15.5457 16.7542 15.7457C16.9543 15.9458 17.0666 16.2171 17.0666 16.5C17.0666 16.7829 16.9543 17.0542 16.7542 17.2542C16.5542 17.4543 16.2829 17.5666 16 17.5666C15.7171 17.5666 15.4458 17.4543 15.2457 17.2542C15.0457 17.0542 14.9333 16.7829 14.9333 16.5ZM20.2666 15.4333C19.9837 15.4333 19.7124 15.5457 19.5124 15.7457C19.3123 15.9458 19.2 16.2171 19.2 16.5C19.2 16.7829 19.3123 17.0542 19.5124 17.2542C19.7124 17.4543 19.9837 17.5666 20.2666 17.5666C20.5495 17.5666 20.8208 17.4543 21.0209 17.2542C21.2209 17.0542 21.3333 16.7829 21.3333 16.5C21.3333 16.2171 21.2209 15.9458 21.0209 15.7457C20.8208 15.5457 20.5495 15.4333 20.2666 15.4333ZM23.4666 16.5C23.4666 16.2171 23.579 15.9458 23.7791 15.7457C23.9791 15.5457 24.2504 15.4333 24.5333 15.4333C24.8162 15.4333 25.0875 15.5457 25.2875 15.7457C25.4876 15.9458 25.6 16.2171 25.6 16.5C25.6 16.7829 25.4876 17.0542 25.2875 17.2542C25.0875 17.4543 24.8162 17.5666 24.5333 17.5666C24.2504 17.5666 23.9791 17.4543 23.7791 17.2542C23.579 17.0542 23.4666 16.7829 23.4666 16.5ZM24.5333 19.7C24.2504 19.7 23.9791 19.8123 23.7791 20.0124C23.579 20.2124 23.4666 20.4837 23.4666 20.7666C23.4666 21.0495 23.579 21.3208 23.7791 21.5209C23.9791 21.7209 24.2504 21.8333 24.5333 21.8333C24.8162 21.8333 25.0875 21.7209 25.2875 21.5209C25.4876 21.3208 25.6 21.0495 25.6 20.7666C25.6 20.4837 25.4876 20.2124 25.2875 20.0124C25.0875 19.8123 24.8162 19.7 24.5333 19.7ZM19.2 20.7666C19.2 20.4837 19.3123 20.2124 19.5124 20.0124C19.7124 19.8123 19.9837 19.7 20.2666 19.7C20.5495 19.7 20.8208 19.8123 21.0209 20.0124C21.2209 20.2124 21.3333 20.4837 21.3333 20.7666C21.3333 21.0495 21.2209 21.3208 21.0209 21.5209C20.8208 21.7209 20.5495 21.8333 20.2666 21.8333C19.9837 21.8333 19.7124 21.7209 19.5124 21.5209C19.3123 21.3208 19.2 21.0495 19.2 20.7666ZM16 19.7C15.7171 19.7 15.4458 19.8123 15.2457 20.0124C15.0457 20.2124 14.9333 20.4837 14.9333 20.7666C14.9333 21.0495 15.0457 21.3208 15.2457 21.5209C15.4458 21.7209 15.7171 21.8333 16 21.8333C16.2829 21.8333 16.5542 21.7209 16.7542 21.5209C16.9543 21.3208 17.0666 21.0495 17.0666 20.7666C17.0666 20.4837 16.9543 20.2124 16.7542 20.0124C16.5542 19.8123 16.2829 19.7 16 19.7ZM10.6666 20.7666C10.6666 20.4837 10.779 20.2124 10.9791 20.0124C11.1791 19.8123 11.4504 19.7 11.7333 19.7C12.0162 19.7 12.2875 19.8123 12.4875 20.0124C12.6876 20.2124 12.8 20.4837 12.8 20.7666C12.8 21.0495 12.6876 21.3208 12.4875 21.5209C12.2875 21.7209 12.0162 21.8333 11.7333 21.8333C11.4504 21.8333 11.1791 21.7209 10.9791 21.5209C10.779 21.3208 10.6666 21.0495 10.6666 20.7666ZM7.46663 19.7C7.18374 19.7 6.91243 19.8123 6.71239 20.0124C6.51235 20.2124 6.39997 20.4837 6.39997 20.7666C6.39997 21.0495 6.51235 21.3208 6.71239 21.5209C6.91243 21.7209 7.18374 21.8333 7.46663 21.8333C7.74953 21.8333 8.02084 21.7209 8.22088 21.5209C8.42092 21.3208 8.5333 21.0495 8.5333 20.7666C8.5333 20.4837 8.42092 20.2124 8.22088 20.0124C8.02084 19.8123 7.74953 19.7 7.46663 19.7ZM6.39997 25.0333C6.39997 24.7504 6.51235 24.4791 6.71239 24.2791C6.91243 24.079 7.18374 23.9666 7.46663 23.9666C7.74953 23.9666 8.02084 24.079 8.22088 24.2791C8.42092 24.4791 8.5333 24.7504 8.5333 25.0333C8.5333 25.3162 8.42092 25.5875 8.22088 25.7875C8.02084 25.9876 7.74953 26.1 7.46663 26.1C7.18374 26.1 6.91243 25.9876 6.71239 25.7875C6.51235 25.5875 6.39997 25.3162 6.39997 25.0333ZM11.7333 23.9666C11.4504 23.9666 11.1791 24.079 10.9791 24.2791C10.779 24.4791 10.6666 24.7504 10.6666 25.0333C10.6666 25.3162 10.779 25.5875 10.9791 25.7875C11.1791 25.9876 11.4504 26.1 11.7333 26.1C12.0162 26.1 12.2875 25.9876 12.4875 25.7875C12.6876 25.5875 12.8 25.3162 12.8 25.0333C12.8 24.7504 12.6876 24.4791 12.4875 24.2791C12.2875 24.079 12.0162 23.9666 11.7333 23.9666ZM14.9333 25.0333C14.9333 24.7504 15.0457 24.4791 15.2457 24.2791C15.4458 24.079 15.7171 23.9666 16 23.9666C16.2829 23.9666 16.5542 24.079 16.7542 24.2791C16.9543 24.4791 17.0666 24.7504 17.0666 25.0333C17.0666 25.3162 16.9543 25.5875 16.7542 25.7875C16.5542 25.9876 16.2829 26.1 16 26.1C15.7171 26.1 15.4458 25.9876 15.2457 25.7875C15.0457 25.5875 14.9333 25.3162 14.9333 25.0333ZM20.2666 23.9666C19.9837 23.9666 19.7124 24.079 19.5124 24.2791C19.3123 24.4791 19.2 24.7504 19.2 25.0333C19.2 25.3162 19.3123 25.5875 19.5124 25.7875C19.7124 25.9876 19.9837 26.1 20.2666 26.1C20.5495 26.1 20.8208 25.9876 21.0209 25.7875C21.2209 25.5875 21.3333 25.3162 21.3333 25.0333C21.3333 24.7504 21.2209 24.4791 21.0209 24.2791C20.8208 24.079 20.5495 23.9666 20.2666 23.9666Z" fill="#5A4FCF"/>
</svg>
