<svg width="32" height="32" viewBox="0 0 32 32" fill="none" xmlns="http://www.w3.org/2000/svg">
<path d="M15.75 17C15.75 17.1989 15.671 17.3897 15.5303 17.5303C15.3897 17.671 15.1989 17.75 15 17.75H9C8.80109 17.75 8.61032 17.671 8.46967 17.5303C8.32902 17.3897 8.25 17.1989 8.25 17C8.25 16.8011 8.32902 16.6103 8.46967 16.4697C8.61032 16.329 8.80109 16.25 9 16.25H15C15.1989 16.25 15.3897 16.329 15.5303 16.4697C15.671 16.6103 15.75 16.8011 15.75 17ZM15 12.25H9C8.80109 12.25 8.61032 12.329 8.46967 12.4697C8.32902 12.6103 8.25 12.8011 8.25 13C8.25 13.1989 8.32902 13.3897 8.46967 13.5303C8.61032 13.671 8.80109 13.75 9 13.75H15C15.1989 13.75 15.3897 13.671 15.5303 13.5303C15.671 13.3897 15.75 13.1989 15.75 13C15.75 12.8011 15.671 12.6103 15.5303 12.4697C15.3897 12.329 15.1989 12.25 15 12.25ZM28.75 20.0775V28C28.7503 28.1318 28.7159 28.2614 28.6502 28.3756C28.5845 28.4899 28.4898 28.5848 28.3758 28.6508C28.2617 28.7168 28.1322 28.7517 28.0004 28.7517C27.8686 28.7518 27.7391 28.7172 27.625 28.6513L24.5 26.8638L21.375 28.6513C21.2609 28.7172 21.1314 28.7518 20.9996 28.7517C20.8678 28.7517 20.7383 28.7168 20.6242 28.6508C20.5102 28.5848 20.4155 28.4899 20.3498 28.3756C20.2841 28.2614 20.2497 28.1318 20.25 28V24.75H5C4.53587 24.75 4.09075 24.5656 3.76256 24.2374C3.43437 23.9092 3.25 23.4641 3.25 23V7C3.25 6.53587 3.43437 6.09075 3.76256 5.76256C4.09075 5.43437 4.53587 5.25 5 5.25H27C27.4641 5.25 27.9092 5.43437 28.2374 5.76256C28.5656 6.09075 28.75 6.53587 28.75 7V10.9225C29.3807 11.5066 29.8839 12.2147 30.228 13.0024C30.5722 13.7901 30.7498 14.6404 30.7498 15.5C30.7498 16.3596 30.5722 17.2099 30.228 17.9976C29.8839 18.7853 29.3807 19.4934 28.75 20.0775ZM24.5 10.75C23.5605 10.75 22.6422 11.0286 21.861 11.5505C21.0799 12.0725 20.4711 12.8143 20.1116 13.6823C19.7521 14.5502 19.658 15.5053 19.8413 16.4267C20.0245 17.3481 20.4769 18.1945 21.1412 18.8588C21.8055 19.5231 22.6519 19.9754 23.5733 20.1587C24.4947 20.342 25.4498 20.2479 26.3177 19.8884C27.1857 19.5289 27.9275 18.9201 28.4495 18.139C28.9714 17.3578 29.25 16.4395 29.25 15.5C29.25 14.2402 28.7496 13.032 27.8588 12.1412C26.968 11.2504 25.7598 10.75 24.5 10.75ZM20.25 23.25V20.0775C19.1556 19.0562 18.4642 17.676 18.3014 16.1879C18.1386 14.6999 18.5152 13.2028 19.3629 11.969C20.2106 10.7352 21.4729 9.84666 22.9203 9.46489C24.3677 9.08312 25.9041 9.23352 27.25 9.88875V7C27.25 6.9337 27.2237 6.87011 27.1768 6.82322C27.1299 6.77634 27.0663 6.75 27 6.75H5C4.9337 6.75 4.87011 6.77634 4.82322 6.82322C4.77634 6.87011 4.75 6.9337 4.75 7V23C4.75 23.0663 4.77634 23.1299 4.82322 23.1768C4.87011 23.2237 4.9337 23.25 5 23.25H20.25ZM27.25 21.1112C26.3942 21.5315 25.4534 21.75 24.5 21.75C23.5466 21.75 22.6058 21.5315 21.75 21.1112V26.7075L24.125 25.3487C24.239 25.2829 24.3683 25.2483 24.5 25.2483C24.6317 25.2483 24.761 25.2829 24.875 25.3487L27.25 26.7075V21.1112Z" fill="#5A4FCF"/>
</svg>
