<svg width="20" height="20" viewBox="0 0 20 20" fill="none" xmlns="http://www.w3.org/2000/svg">
<path d="M17.25 4.75H14.5V3H13.5V4.75H7.5V3H6.5V4.75H3.75C3.55116 4.75023 3.36053 4.82932 3.21993 4.96993C3.07932 5.11053 3.00023 5.30116 3 5.5V16C3.00023 16.1988 3.07932 16.3895 3.21993 16.5301C3.36053 16.6707 3.55116 16.7498 3.75 16.75H17.25C17.4488 16.7498 17.6395 16.6707 17.7801 16.5301C17.9207 16.3895 17.9998 16.1988 18 16V5.5C17.9998 5.30116 17.9207 5.11053 17.7801 4.96993C17.6395 4.82932 17.4488 4.75023 17.25 4.75ZM17 15.75H4V5.75H6.5V7H7.5V5.75H13.5V7H14.5V5.75H17V15.75Z" fill="#666666"/>
<path d="M9.50779 12.2412L7.38338 10.1168L6.49951 11.0007L9.50779 14.009L14.4146 9.10213L13.5307 8.21826L9.50779 12.2412Z" fill="#666666"/>
</svg>
