<svg width="32" height="32" viewBox="0 0 32 32" fill="none" xmlns="http://www.w3.org/2000/svg">
<path d="M24.3333 14C23.781 14 23.3333 14.4477 23.3333 15C23.3333 15.5523 23.781 16 24.3333 16V14ZM27 15V16C27.4045 16 27.7691 15.7564 27.9239 15.3827C28.0787 15.009 27.9931 14.5789 27.7071 14.2929L27 15ZM15 3L15.7071 2.29289C15.3166 1.90237 14.6834 1.90237 14.2929 2.29289L15 3ZM3 15L2.29289 14.2929C2.0069 14.5789 1.92134 15.009 2.07612 15.3827C2.2309 15.7564 2.59554 16 3 16V15ZM5.66667 15H6.66667C6.66667 14.4477 6.21895 14 5.66667 14V15ZM5.66667 24.3333H4.66667H5.66667ZM15 28C15.5523 28 16 27.5523 16 27C16 26.4477 15.5523 26 15 26V28ZM20.3333 24.3333H19.3333H20.3333ZM24.3333 28.3333V29.3333V28.3333ZM28.3333 24.3333H29.3333H28.3333ZM24.3333 20.3333V19.3333V20.3333ZM10 27C10 27.5523 10.4477 28 11 28C11.5523 28 12 27.5523 12 27H10ZM13.6667 16.3333V17.3333V16.3333ZM17.649 17.9766C17.9888 18.4119 18.6172 18.4895 19.0526 18.1497C19.488 17.8099 19.5655 17.1815 19.2257 16.7461L17.649 17.9766ZM24.3333 16H27V14H24.3333V16ZM27.7071 14.2929L15.7071 2.29289L14.2929 3.70711L26.2929 15.7071L27.7071 14.2929ZM14.2929 2.29289L2.29289 14.2929L3.70711 15.7071L15.7071 3.70711L14.2929 2.29289ZM3 16H5.66667V14H3V16ZM4.66667 15V24.3333H6.66667V15H4.66667ZM4.66667 24.3333C4.66667 25.3058 5.05297 26.2384 5.74061 26.9261L7.15482 25.5118C6.84226 25.1993 6.66667 24.7754 6.66667 24.3333H4.66667ZM5.74061 26.9261C6.42824 27.6137 7.36087 28 8.33333 28V26C7.8913 26 7.46738 25.8244 7.15482 25.5118L5.74061 26.9261ZM8.33333 28H15V26H8.33333V28ZM19.3333 24.3333C19.3333 25.6594 19.8601 26.9312 20.7978 27.8689L22.212 26.4547C21.6494 25.892 21.3333 25.129 21.3333 24.3333H19.3333ZM20.7978 27.8689C21.7355 28.8066 23.0073 29.3333 24.3333 29.3333V27.3333C23.5377 27.3333 22.7746 27.0173 22.212 26.4547L20.7978 27.8689ZM24.3333 29.3333C25.6594 29.3333 26.9312 28.8066 27.8689 27.8689L26.4547 26.4547C25.892 27.0173 25.129 27.3333 24.3333 27.3333V29.3333ZM27.8689 27.8689C28.8066 26.9312 29.3333 25.6594 29.3333 24.3333H27.3333C27.3333 25.129 27.0173 25.892 26.4547 26.4547L27.8689 27.8689ZM29.3333 24.3333C29.3333 23.0073 28.8066 21.7355 27.8689 20.7978L26.4547 22.212C27.0173 22.7746 27.3333 23.5377 27.3333 24.3333H29.3333ZM27.8689 20.7978C26.9312 19.8601 25.6594 19.3333 24.3333 19.3333V21.3333C25.129 21.3333 25.892 21.6494 26.4547 22.212L27.8689 20.7978ZM24.3333 19.3333C23.0073 19.3333 21.7355 19.8601 20.7978 20.7978L22.212 22.212C22.7746 21.6494 23.5377 21.3333 24.3333 21.3333V19.3333ZM20.7978 20.7978C19.8601 21.7355 19.3333 23.0073 19.3333 24.3333H21.3333C21.3333 23.5377 21.6494 22.7746 22.212 22.212L20.7978 20.7978ZM12 27V19H10V27H12ZM12 19C12 18.558 12.1756 18.134 12.4882 17.8215L11.0739 16.4073C10.3863 17.0949 10 18.0275 10 19H12ZM12.4882 17.8215C12.8007 17.5089 13.2246 17.3333 13.6667 17.3333V15.3333C12.6942 15.3333 11.7616 15.7196 11.0739 16.4073L12.4882 17.8215ZM13.6667 17.3333H16.3333V15.3333H13.6667V17.3333ZM16.3333 17.3333C16.8667 17.3333 17.3422 17.5834 17.649 17.9766L19.2257 16.7461C18.5565 15.8886 17.5093 15.3333 16.3333 15.3333V17.3333Z" fill="#5A4FCF"/>
</svg>
