<svg width="18" height="18" viewBox="0 0 18 18" fill="none" xmlns="http://www.w3.org/2000/svg">
<path d="M12.75 10.5C13.4718 10.4973 14.1776 10.2864 14.7825 9.8925L15 9.75C15.1208 9.66809 15.2338 9.5752 15.3375 9.4725L15.495 9.3225C15.627 9.18786 15.7474 9.04234 15.855 8.8875L15.9 8.8275C16.0215 8.64835 16.1245 8.45738 16.2075 8.2575C16.2345 8.20186 16.2571 8.14418 16.275 8.085C16.3373 7.93167 16.3875 7.77369 16.425 7.6125L16.47 7.425C16.4984 7.2012 16.5085 6.97544 16.5 6.75V1.5L14.25 3.75H11.25L9 1.5V6.75C9 7.74456 9.39509 8.69839 10.0983 9.40165C10.8016 10.1049 11.7554 10.5 12.75 10.5ZM14.25 5.25C14.3983 5.25 14.5433 5.29399 14.6667 5.3764C14.79 5.45881 14.8861 5.57594 14.9429 5.71299C14.9997 5.85003 15.0145 6.00083 14.9856 6.14632C14.9567 6.2918 14.8852 6.42544 14.7803 6.53033C14.6754 6.63522 14.5418 6.70665 14.3963 6.73559C14.2508 6.76453 14.1 6.74968 13.963 6.69291C13.8259 6.63614 13.7088 6.54001 13.6264 6.41668C13.544 6.29334 13.5 6.14834 13.5 6C13.5 5.80109 13.579 5.61032 13.7197 5.46967C13.8603 5.32902 14.0511 5.25 14.25 5.25ZM11.25 5.25C11.3983 5.25 11.5433 5.29399 11.6667 5.3764C11.79 5.45881 11.8861 5.57594 11.9429 5.71299C11.9997 5.85003 12.0145 6.00083 11.9856 6.14632C11.9567 6.2918 11.8852 6.42544 11.7803 6.53033C11.6754 6.63522 11.5418 6.70665 11.3963 6.73559C11.2508 6.76453 11.1 6.74968 10.963 6.69291C10.8259 6.63614 10.7088 6.54001 10.6264 6.41668C10.544 6.29334 10.5 6.14834 10.5 6C10.5 5.80109 10.579 5.61032 10.7197 5.46967C10.8603 5.32902 11.0511 5.25 11.25 5.25Z" fill="#5A4FCF"/>
<path d="M8.25 16.5V12.75H6V16.5H3.75V8.925C3.36853 8.86959 3.004 8.7306 2.68247 8.51798C2.36093 8.30535 2.09033 8.02433 1.89 7.695C1.64783 7.29622 1.51344 6.84136 1.5 6.375C1.5136 6.00187 1.60339 5.63546 1.76384 5.29831C1.9243 4.96116 2.15203 4.6604 2.43303 4.41453C2.71403 4.16866 3.04235 3.98287 3.39782 3.86859C3.75328 3.7543 4.12836 3.71395 4.5 3.75C4.70012 3.76203 4.90052 3.73147 5.08796 3.66034C5.2754 3.58922 5.44562 3.47914 5.58738 3.33738C5.72914 3.19562 5.83922 3.0254 5.91035 2.83796C5.98147 2.65052 6.01203 2.45012 6 2.25C6 2.05109 6.07902 1.86032 6.21967 1.71967C6.36032 1.57902 6.55109 1.5 6.75 1.5C6.94891 1.5 7.13968 1.57902 7.28033 1.71967C7.42098 1.86032 7.5 2.05109 7.5 2.25C7.5114 2.64706 7.44159 3.04227 7.29486 3.4114C7.14813 3.78053 6.92756 4.11581 6.64668 4.39668C6.36581 4.67756 6.03053 4.89813 5.6614 5.04486C5.29227 5.19159 4.89706 5.2614 4.5 5.25C3.1425 5.25 3 6.12 3 6.3825C3 6.645 3.135 7.5 4.5 7.5H8.3175C8.42767 8.14611 8.67765 8.76036 9.04996 9.29979C9.42227 9.83922 9.90792 10.2908 10.473 10.623C11.038 10.9551 11.6688 11.1599 12.3212 11.2228C12.9736 11.2858 13.6319 11.2055 14.25 10.9875V16.5H12V12.75H10.5V16.5H8.25Z" fill="#5A4FCF"/>
</svg>
