<svg width="21" height="18" viewBox="0 0 21 18" fill="none" xmlns="http://www.w3.org/2000/svg">
<path d="M10.6741 5.95312L11.3959 1.61875C11.4553 1.2625 11.7647 1 12.1272 1C12.3616 1 12.5803 1.10938 12.7209 1.29688L13.2491 2H14.8772C15.2741 2 15.6553 2.15937 15.9366 2.44062L16.4991 3H18.2491C18.6647 3 18.9991 3.33437 18.9991 3.75V4.5C18.9991 5.88125 17.8803 7 16.4991 7H14.3334L14.1741 7.95312L10.6741 5.95312ZM13.9991 9.00313V16C13.9991 16.5531 13.5522 17 12.9991 17H11.9991C11.4459 17 10.9991 16.5531 10.9991 16V12.4C10.2491 12.7844 9.39905 13 8.49905 13C7.59905 13 6.74905 12.7844 5.99905 12.4V16C5.99905 16.5531 5.55218 17 4.99905 17H3.99905C3.44593 17 2.99905 16.5531 2.99905 16V8.80625C2.09905 8.46563 1.3928 7.70312 1.14905 6.72813L1.0303 6.24375C0.895927 5.70937 1.22093 5.16563 1.75843 5.03125C2.29593 4.89687 2.83655 5.22188 2.97093 5.75938L3.0928 6.24375C3.20218 6.6875 3.60218 7 4.06155 7H10.4928L13.9991 9.00313ZM15.4991 3.5C15.4991 3.36739 15.4464 3.24021 15.3526 3.14645C15.2588 3.05268 15.1317 3 14.9991 3C14.8664 3 14.7393 3.05268 14.6455 3.14645C14.5517 3.24021 14.4991 3.36739 14.4991 3.5C14.4991 3.63261 14.5517 3.75979 14.6455 3.85355C14.7393 3.94732 14.8664 4 14.9991 4C15.1317 4 15.2588 3.94732 15.3526 3.85355C15.4464 3.75979 15.4991 3.63261 15.4991 3.5Z" fill="#5A4FCF"/>
</svg>
