<svg width="26" height="26" viewBox="0 0 26 26" fill="none" xmlns="http://www.w3.org/2000/svg">
<path d="M6.83335 10.2918C6.83335 11.3734 5.95658 12.2502 4.87502 12.2502C3.79346 12.2502 2.91669 11.3734 2.91669 10.2918C2.91669 9.21027 3.79346 8.3335 4.87502 8.3335C5.95658 8.3335 6.83335 9.21027 6.83335 10.2918Z" stroke="#5A4FCF" stroke-width="1.5"/>
<path d="M11.7084 5.95833C11.7084 7.03989 10.8316 7.91667 9.75002 7.91667C8.66846 7.91667 7.79169 7.03989 7.79169 5.95833C7.79169 4.87678 8.66846 4 9.75002 4C10.8316 4 11.7084 4.87678 11.7084 5.95833Z" stroke="#5A4FCF" stroke-width="1.5"/>
<path d="M18.2084 5.95833C18.2084 7.03989 17.3316 7.91667 16.25 7.91667C15.1685 7.91667 14.2917 7.03989 14.2917 5.95833C14.2917 4.87678 15.1685 4 16.25 4C17.3316 4 18.2084 4.87678 18.2084 5.95833Z" stroke="#5A4FCF" stroke-width="1.5"/>
<path d="M23.0834 10.2918C23.0834 11.3734 22.2066 12.2502 21.125 12.2502C20.0435 12.2502 19.1667 11.3734 19.1667 10.2918C19.1667 9.21027 20.0435 8.3335 21.125 8.3335C22.2066 8.3335 23.0834 9.21027 23.0834 10.2918Z" stroke="#5A4FCF" stroke-width="1.5"/>
<path d="M18.2144 16.585L18.2337 16.6077L18.2547 16.6287C18.3414 16.7154 18.4279 16.8013 18.5139 16.8869C19.1585 17.5275 19.7759 18.1411 20.2353 18.8215C20.7303 19.5546 20.9921 20.297 20.8778 21.1382C20.6074 22.0342 19.9845 22.8396 18.9392 23.0765C18.856 23.0902 18.652 23.0918 18.2667 23.0546C17.9527 23.0244 17.5809 22.9759 17.1486 22.9195C17.0662 22.9087 16.9816 22.8977 16.8948 22.8864C15.8275 22.7481 14.4827 22.585 13.0867 22.585H12.8917C11.4948 22.585 10.1493 22.751 9.08256 22.8906C9.00615 22.9006 8.93147 22.9104 8.8585 22.92C8.41387 22.9785 8.03283 23.0287 7.71257 23.0591C7.32181 23.0963 7.12147 23.0922 7.04496 23.0778C5.99428 22.8422 5.37127 22.0442 5.10106 21.1406C4.9914 20.3053 5.2549 19.565 5.75174 18.8321C6.21206 18.153 6.82918 17.5397 7.47303 16.8999C7.5598 16.8136 7.64706 16.7269 7.73449 16.6395L7.754 16.62L7.77203 16.5991C8.38483 15.8888 8.93288 15.2429 9.49473 14.5807C9.80735 14.2122 10.1242 13.8387 10.459 13.4463C10.9444 12.889 11.4647 12.4299 12.0299 12.2361L12.0299 12.2362L12.043 12.2315C12.1243 12.2019 12.2026 12.1808 12.2783 12.1671L12.2783 12.1671L12.2858 12.1657C12.4854 12.1273 12.7057 12.125 13 12.125C13.2902 12.125 13.5189 12.1266 13.7184 12.1576C13.7918 12.1714 13.8676 12.1921 13.9462 12.2207L13.9461 12.2208L13.9592 12.2253C14.5277 12.4202 15.06 12.8835 15.5274 13.4322L15.5274 13.4322L15.5305 13.4358C16.1398 14.1421 16.6804 14.7792 17.2392 15.4378C17.5533 15.8081 17.8733 16.1851 18.2144 16.585Z" stroke="#5A4FCF" stroke-width="1.5"/>
</svg>
