<svg width="72" height="70" viewBox="0 0 72 70" fill="none" xmlns="http://www.w3.org/2000/svg">
<g opacity="0.3" clip-path="url(#clip0_8_885)">
<circle cx="27.4628" cy="11.3409" r="6.96351" transform="rotate(-6.60882 27.4628 11.3409)" fill="#1DC690"/>
<circle cx="60.5038" cy="39.1649" r="6.96351" transform="rotate(-104.257 60.5038 39.1649)" fill="#1DC690"/>
<circle cx="44.379" cy="10.857" r="6.96351" transform="rotate(-6.60882 44.379 10.857)" fill="#1DC690"/>
<circle cx="57.748" cy="22.247" r="6.96351" transform="rotate(-104.257 57.748 22.247)" fill="#1DC690"/>
<path fill-rule="evenodd" clip-rule="evenodd" d="M23.2741 49.8699C19.8432 50.7705 16.1231 49.9639 13.0644 47.5404C10.6319 45.6086 9.06498 42.7907 8.70747 39.705C8.34996 36.6192 9.23105 33.5177 11.1574 31.0808C19.3726 20.7126 41.3954 24.501 42.3247 24.6731C42.5708 24.717 42.8022 24.8212 42.9981 24.9765C43.1941 25.1317 43.3484 25.3331 43.4474 25.5627C43.8275 26.428 52.5511 47.0011 44.3359 57.3694C42.404 59.802 39.5861 61.3689 36.5004 61.7264C33.4147 62.0839 30.3132 61.2028 27.8762 59.2764C24.8176 56.8529 23.1818 53.4158 23.2741 49.8699Z" fill="#1DC690"/>
</g>
<defs>
<clipPath id="clip0_8_885">
<rect width="64.2021" height="62.9128" fill="white" transform="translate(0.0849609 7.50293) rotate(-6.60882)"/>
</clipPath>
</defs>
</svg>
