<svg width="35" height="35" viewBox="0 0 35 35" fill="none" xmlns="http://www.w3.org/2000/svg">
<g clip-path="url(#clip0_8_333)">
<ellipse cx="20.9132" cy="29.5611" rx="3.47692" ry="3.47692" transform="rotate(175.588 20.9132 29.5611)" fill="#5A4FCF"/>
<ellipse cx="4.96058" cy="15.0461" rx="3.47692" ry="3.47692" transform="rotate(77.9395 4.96058 15.0461)" fill="#5A4FCF"/>
<ellipse cx="12.464" cy="29.4786" rx="3.47692" ry="3.47692" transform="rotate(175.588 12.464 29.4786)" fill="#5A4FCF"/>
<ellipse cx="6.01197" cy="23.5402" rx="3.47692" ry="3.47692" transform="rotate(77.9395 6.01197 23.5402)" fill="#5A4FCF"/>
<path fill-rule="evenodd" clip-rule="evenodd" d="M23.7411 10.4176C25.4702 10.0339 27.3108 10.5076 28.7905 11.7753C29.9673 12.7857 30.6951 14.2217 30.8144 15.7681C30.9338 17.3145 30.4348 18.8451 29.427 20.0241C25.1297 25.04 14.2142 22.7283 13.7538 22.6247C13.6319 22.5981 13.5184 22.5416 13.4236 22.4604C13.3289 22.3792 13.2557 22.2758 13.2107 22.1593C13.0376 21.7203 9.07882 11.2886 13.3761 6.27273C14.3866 5.09601 15.8225 4.36815 17.3689 4.24883C18.9154 4.12951 20.446 4.62848 21.625 5.63626C23.1047 6.90397 23.8551 8.6502 23.7411 10.4176Z" fill="#5A4FCF"/>
</g>
<defs>
<clipPath id="clip0_8_333">
<rect width="32" height="32" fill="white" transform="translate(34.5 32) rotate(175.588)"/>
</clipPath>
</defs>
</svg>
