<svg width="32" height="32" viewBox="0 0 32 32" fill="none" xmlns="http://www.w3.org/2000/svg">
<path d="M14.6667 13.3332C17.6122 13.3332 20 10.9454 20 7.99984C20 5.05432 17.6122 2.6665 14.6667 2.6665C11.7212 2.6665 9.33337 5.05432 9.33337 7.99984C9.33337 10.9454 11.7212 13.3332 14.6667 13.3332Z" stroke="#5A4FCF" stroke-width="2"/>
<path d="M22.6666 13.733L24.444 15.333L28 11.333" stroke="#5A4FCF" stroke-width="2" stroke-linecap="round" stroke-linejoin="round"/>
<path d="M25.3307 23.9997C25.3333 23.781 25.3333 23.5583 25.3333 23.333C25.3333 20.0197 20.5573 17.333 14.6667 17.333C8.776 17.333 4 20.0197 4 23.333C4 26.6463 4 29.333 14.6667 29.333C17.6413 29.333 19.7867 29.1237 21.3333 28.7503" stroke="#5A4FCF" stroke-width="2" stroke-linecap="round"/>
</svg>
