<svg width="125" height="52" viewBox="0 0 125 52" fill="none" xmlns="http://www.w3.org/2000/svg">
<g clip-path="url(#clip0_361_449)">
<path fill-rule="evenodd" clip-rule="evenodd" d="M18.6886 19.8352C19.3537 19.9182 20.0268 19.8594 20.6909 19.7407C21.5244 19.5916 22.6992 17.9873 22.2748 16.9584C22.0402 16.3872 21.8727 15.7929 21.5265 15.2753C21.3143 14.9582 21.161 14.595 21.0066 14.239C20.9427 14.091 20.8259 13.8894 20.9904 13.7477C21.1203 13.6353 21.2909 13.7361 21.4128 13.817C22.3134 14.4175 22.888 15.0706 23.4637 16.0397C23.6313 16.3221 23.9105 16.6749 23.8292 17.0119C23.6658 17.7007 23.5348 18.3978 23.3794 19.0876C23.3466 19.2252 23.2891 19.3552 23.2099 19.4709C22.753 20.146 22.6616 20.945 22.5225 21.7282C22.5081 21.8163 22.5158 21.9067 22.5448 21.9907C22.8972 22.9556 22.751 23.9531 22.7449 24.9463C22.7367 26.1306 23.0525 27.1932 24.0079 27.925C24.1145 27.9995 24.1985 28.1038 24.2501 28.2257C24.3017 28.3476 24.3187 28.4822 24.2993 28.6137C24.2222 29.4327 24.2455 30.2369 24.4445 31.0454C24.5704 31.5609 24.3572 31.8066 23.8678 31.8853C23.5541 31.9378 23.2383 32.005 22.9236 31.8885C22.7936 31.8412 22.6616 31.7982 22.6291 31.6323C22.5987 31.4664 22.7032 31.3656 22.8098 31.2785C22.889 31.2144 22.9784 31.1588 23.0688 31.1157C23.349 30.9834 23.3957 30.7714 23.347 30.4616C23.2535 29.8779 23.1591 29.3046 22.7753 28.8395C22.7103 28.7607 22.6596 28.6022 22.5753 28.6274C22.4311 28.6694 22.5042 28.8384 22.5022 28.9497C22.4931 29.3424 22.488 29.7351 22.5022 30.1267C22.5154 30.4847 22.3469 30.7042 22.0575 30.8239C21.7194 30.9624 21.364 30.9278 21.0158 30.8669C20.8574 30.8396 20.7528 30.7021 20.701 30.5477C20.6421 30.3724 20.7873 30.2905 20.8909 30.2117C21.1853 29.986 21.5173 29.8285 21.4879 29.3193C21.4524 28.7208 21.3315 28.1875 20.8787 27.8021C20.5956 27.5531 20.2934 27.3284 19.975 27.1302C19.3943 26.7816 18.8846 26.3606 18.5312 25.7548C18.2683 25.3043 16.5432 24.8235 16.1371 24.7867C15.0141 24.6838 14.0455 25.2046 13.0312 25.5542C12.8038 25.633 12.7408 25.844 12.6921 26.0487C12.4456 27.0495 12.3305 28.08 12.3499 29.1125C12.3692 29.8894 12.1032 30.6181 12.1062 31.3887C12.105 31.5064 12.0658 31.6202 11.9947 31.7121C11.9237 31.804 11.825 31.8687 11.7143 31.8958C11.2188 32.0292 10.7193 32.0659 10.2421 31.815C9.93953 31.6565 9.92024 31.5137 10.1528 31.2417C10.2411 31.1388 10.3487 31.0296 10.4675 30.9845C10.8442 30.8417 10.9874 30.5225 10.9924 30.1529C11.0036 29.2983 11.1772 28.452 11.1041 27.5942C11.099 27.5239 11.1041 27.4515 11.094 27.3811C11.0777 27.2793 11.0716 27.147 10.9356 27.1585C10.83 27.169 10.832 27.2866 10.8279 27.3706C10.8137 27.7097 10.7477 28.052 10.7579 28.3796C10.7772 28.9991 10.5538 29.566 10.5142 30.1655C10.4685 30.8648 9.38516 31.3793 8.66225 30.9698C8.49269 30.8743 8.54041 30.7367 8.62976 30.6128C8.76175 30.427 8.911 30.2495 9.11711 30.1603C9.3679 30.0511 9.44913 29.8401 9.50192 29.5818C9.58112 29.1944 9.6065 28.8048 9.58721 28.4121C9.52426 27.1312 9.40953 25.8587 9.08158 24.6177C9.0257 24.3764 8.92198 24.1497 8.77698 23.952C8.41552 23.4827 8.23885 22.9273 8.2023 22.3278C8.17814 21.8836 8.09195 21.4455 7.94644 21.0269C7.75048 20.4736 7.67636 19.8867 7.58701 19.3081C7.51086 18.8147 7.35755 18.381 6.99101 18.0556C6.81638 17.9012 6.71687 17.6681 6.81638 17.4865C7.03772 17.0791 6.82856 16.7337 6.72601 16.3904C6.63057 16.0691 6.57778 15.773 6.68337 15.4559C6.78896 15.1399 6.66205 14.891 6.53919 14.6023C6.08534 13.5356 5.75231 12.4447 6.2417 11.2677C6.36354 10.9737 6.45187 10.9107 6.70164 11.1344C7.20931 11.59 7.6459 12.1003 7.87029 12.7744C8.03173 13.2573 8.30282 13.4978 8.80947 13.4526C9.05213 13.4316 9.3151 13.4925 9.54964 13.5776C9.92126 13.7109 10.2086 13.5839 10.4655 13.3245C10.7325 13.0547 10.9863 12.7691 11.2422 12.4877C11.3123 12.4121 11.3569 12.303 11.4371 12.2452C11.6798 12.0667 11.9174 11.7265 12.2139 11.8462C12.5073 11.9638 12.4017 12.3701 12.4413 12.661C12.5353 13.2753 12.5146 13.9026 12.3804 14.5089C12.2646 15.0212 12.0585 15.4076 11.6301 15.6386C11.2625 15.837 11.1853 16.1321 11.2686 16.5258C11.3051 16.699 11.3356 16.8796 11.3285 17.055C11.2818 18.1123 11.8362 18.8724 13.1074 19.326C14.1842 19.7023 15.3243 19.8456 16.4569 19.747C17.2834 19.7806 17.985 19.747 18.6886 19.8352Z" fill="#5A4FCF"/>
</g>
<g clip-path="url(#clip1_361_449)">
<path fill-rule="evenodd" clip-rule="evenodd" d="M65.7831 15.7923C66.5673 15.4491 67.1622 14.8677 67.7201 14.2843C68.3561 13.6192 68.3644 12.7857 68.3644 12.3494C68.3644 11.6557 67.7128 11.1087 66.6536 11.0832C66.0925 11.0697 65.7499 11.2096 65.2824 11.5502C64.9475 11.7935 64.1628 12.5902 64.5128 13.2417C64.531 13.2755 64.5606 13.3166 64.6027 13.365C64.6442 13.4131 64.6674 13.4743 64.6681 13.5379C64.6689 13.6014 64.6472 13.6632 64.6069 13.7123C64.5665 13.7615 64.5086 13.7929 64.4454 13.8C64.3821 13.8071 64.3187 13.7892 64.2684 13.7503L64.2133 13.7076C63.5217 13.1793 63.1452 12.9828 63.1452 12.2002C63.1452 10.7275 65.0884 9.31264 66.9651 9.35788C68.8397 9.40312 70.2993 10.7567 70.2993 12.3349C70.2993 13.198 69.7491 14.4226 68.8495 15.3638C68.2744 15.9658 67.58 16.4412 66.8106 16.7595C66.8595 16.8401 66.91 16.9269 66.9614 17.021C67.471 17.9498 67.4045 18.0626 67.4695 19.2227C67.534 20.3833 67.1908 22.4581 67.3223 23.4804C67.4544 24.5022 68.1143 24.6161 68.2594 25.3524C68.3514 25.8188 68.5797 27.8437 68.9442 31.4259C68.9517 31.4984 68.9439 31.5717 68.9213 31.641C68.8986 31.7103 68.8617 31.774 68.8129 31.8282C68.7641 31.8823 68.7044 31.9255 68.6378 31.9551C68.5712 31.9847 68.4992 32 68.4263 32H67.3566C67.219 32 67.087 31.9453 66.9897 31.848C66.8924 31.7507 66.8377 31.6187 66.8377 31.481V31.2226C66.8377 31.0588 66.9146 30.9044 67.0457 30.8066L67.211 30.6823C67.2889 30.624 67.3488 30.5451 67.384 30.4545C67.4192 30.3638 67.4283 30.2652 67.4102 30.1696C67.1258 28.6554 66.8756 27.7438 66.6604 27.435C66.5012 27.2062 65.7826 26.8333 64.856 26.1105C64.6901 25.9805 64.3916 25.7049 63.9616 25.2827C63.927 25.2485 63.8835 25.2247 63.836 25.214C63.7886 25.2033 63.739 25.2061 63.6931 25.2221C63.6472 25.2382 63.6066 25.2668 63.5762 25.3047C63.5457 25.3426 63.5264 25.3883 63.5206 25.4366C63.4426 26.0622 63.3449 26.5895 63.2289 27.0185C63.0885 27.5353 62.6569 28.8837 61.9347 31.0625C61.9003 31.1663 61.8341 31.2567 61.7454 31.3207C61.6567 31.3848 61.5501 31.4192 61.4407 31.4192H60.0793C59.9561 31.419 59.8379 31.37 59.7508 31.2829C59.6636 31.1957 59.6146 31.0775 59.6144 30.9543V30.9231C59.6143 30.8012 59.657 30.6832 59.735 30.5896C59.813 30.4959 59.9215 30.4327 60.0414 30.4109L60.6253 30.3038C61.0444 28.7729 61.2269 27.6518 61.1739 26.9399C61.1365 26.4366 60.7964 25.8511 60.4537 24.8319C60.3825 24.6197 60.2821 24.1871 60.1532 23.5319C60.1463 23.4971 60.1324 23.4641 60.1123 23.4348C60.0922 23.4056 60.0663 23.3808 60.0362 23.3619C60.0062 23.3431 59.9726 23.3306 59.9375 23.3252C59.9024 23.3198 59.8666 23.3217 59.8323 23.3307L56.3676 24.2282C56.3295 24.238 56.2941 24.2564 56.2641 24.2819C56.2341 24.3074 56.2103 24.3394 56.1945 24.3754C56.1786 24.4115 56.1712 24.4507 56.1727 24.49C56.1743 24.5294 56.1847 24.5678 56.2033 24.6026L56.2849 24.7565C56.4409 25.0487 56.522 25.3753 56.522 25.7065V30.5737C56.522 30.7354 56.4466 30.8883 56.3182 30.9871L55.5918 31.5434C55.5008 31.6133 55.3893 31.6511 55.2746 31.6511H54.753C54.6151 31.6509 54.4828 31.596 54.3853 31.4984C54.2878 31.4008 54.233 31.2685 54.233 31.1306V30.8654C54.233 30.6766 54.3344 30.5024 54.4993 30.4104L54.8737 30.2013C54.9611 30.1526 55.0327 30.0797 55.0797 29.9914C55.1268 29.903 55.1473 29.8029 55.1389 29.7032C55.0796 29.0007 55.0068 28.4661 54.9194 28.1C54.83 27.7225 54.6126 27.0486 54.2679 26.0793C54.2537 26.0395 54.23 26.0036 54.1988 25.975C54.1676 25.9463 54.1299 25.9257 54.089 25.915C54.048 25.9042 54.0051 25.9036 53.9638 25.9132C53.9226 25.9228 53.8843 25.9424 53.8524 25.9701L53.751 26.0575C53.4967 26.2775 53.1863 26.4215 52.8545 26.4751L49.6035 26.9951C49.5572 27.0025 49.5138 27.0222 49.4779 27.0523C49.4419 27.0823 49.4147 27.1215 49.3992 27.1658C49.3837 27.21 49.3805 27.2576 49.3898 27.3035C49.3991 27.3494 49.4207 27.392 49.4522 27.4266L49.798 27.8073C49.8853 27.903 49.9332 28.0278 49.9332 28.1572V28.4973C49.9331 28.5669 49.9191 28.6358 49.892 28.6999C49.8649 28.764 49.8252 28.822 49.7753 28.8705C49.7253 28.919 49.6662 28.9569 49.6013 28.9822C49.5364 29.0074 49.4672 29.0193 49.3976 29.0173L48.9712 29.0048C48.8937 29.0026 48.8176 28.983 48.7486 28.9475C48.6796 28.9121 48.6194 28.8617 48.5724 28.8L48.0347 28.0959C47.9655 28.0052 47.9281 27.8943 47.9281 27.7802V26.7465C47.9281 26.5661 48.0217 26.3981 48.1751 26.3035C50.396 24.9307 51.6003 24.172 51.788 24.0259C51.9825 23.8751 52.0636 23.6229 52.0314 23.2698C51.6694 22.195 51.0897 21.8143 50.8291 21.1779C50.5691 20.5419 50.0855 18.5623 49.8463 17.8021C49.3654 16.2733 48.9431 15.4647 48.8292 15.2229C48.5734 14.68 48.122 14.6031 47.6452 14.4159C47.1684 14.2282 46.262 14.2568 45.6724 13.7394C45.0832 13.2214 45.1373 12.6806 45 12.092V11.3718C45 11.0843 45.2335 10.8513 45.521 10.8513H46.9333C47.1242 10.8513 47.2994 10.7473 47.3909 10.5794C47.5521 10.2835 47.8095 10.0006 48.1636 9.73124C48.635 9.37507 49.172 9.11548 49.7439 8.96737C49.6139 7.34811 49.6139 6.43344 49.7439 6.22336C49.8739 6.01328 50.2353 6.34192 50.8291 7.20927C50.9139 6.188 51.0793 5.8136 51.3257 6.08608C51.5556 6.34088 51.9523 7.26647 52.5155 8.86285C52.5893 9.07085 52.6959 9.26741 52.8311 9.44264C53.0677 9.7484 53.2809 10.1145 53.4717 10.5398C53.8342 11.3489 54.2575 13.4622 55.0068 14.5017C55.7556 15.5411 56.1929 15.6264 57.2745 15.8188C57.9931 15.9467 60.4709 15.538 62.5004 15.459C64.0635 15.3976 65.3209 15.6607 65.5476 15.719C65.6292 15.7403 65.7072 15.7642 65.7831 15.7923Z" fill="#5A4FCF"/>
</g>
<path fill-rule="evenodd" clip-rule="evenodd" d="M113.738 23.8521C113.734 24.9862 113.708 26.0941 113.874 27.193C113.946 27.6657 113.999 28.135 113.98 28.6066C113.963 29.0294 113.831 29.4441 113.356 29.5373C112.869 29.6328 112.353 29.7225 111.92 29.3441C111.712 29.1612 111.665 28.8635 111.859 28.7157C112.707 28.0771 112.439 27.2476 112.183 26.5101C111.84 25.5237 111.35 24.5941 110.5 23.9146C109.872 23.4123 109.341 22.7805 108.728 22.2771C107.905 21.601 107.02 20.9362 105.773 21.4657C104.699 21.9203 103.564 22.243 102.387 22.351C102.128 22.3737 101.875 22.4828 101.595 22.5601C101.197 23.7135 101.231 24.9055 101.135 26.0737C101.082 26.7123 101.132 27.3589 101.14 28.0032C101.152 28.9975 100.987 29.9464 100.554 30.8555C100.161 31.685 99.58 32.1032 98.6697 31.9782C98.2686 31.9225 97.6959 32.035 97.547 31.501C97.4004 30.9748 97.8709 30.7555 98.2481 30.5282C98.73 30.2362 98.8822 29.7487 98.8993 29.2294C98.9561 27.3691 99.0334 25.4976 98.647 23.6703C98.472 22.8362 98.297 21.8385 97.1311 21.6703C96.4232 24.5362 96.5629 27.5157 95.7743 30.2305C94.9072 30.7566 94.1527 30.5066 93.405 30.3816C93.2027 30.3475 93.03 30.2237 92.997 29.9907C92.9822 29.8888 93.0007 29.7848 93.0499 29.6943C93.099 29.6037 93.1762 29.5315 93.2697 29.4885C94.5675 28.818 94.6447 27.6885 94.5709 26.3851C94.4334 23.9498 94.0288 21.5385 93.6277 19.1601C93.1811 16.5169 93.0947 13.7726 92.0266 11.2408C91.7709 10.6339 91.7413 9.92827 91.6095 9.27827C91.2482 8.97827 90.8254 9.12259 90.4379 9.07145C89.5107 8.94872 88.5652 8.89077 87.8652 8.12486C87.5422 7.77921 87.2945 7.37018 87.1379 6.92373C86.8914 6.20328 86.9357 6.08623 87.5993 5.726C87.805 5.61237 88.0118 5.49873 88.2243 5.40328C88.955 5.07941 89.4823 4.72942 89.8232 3.82146C90.1834 2.86692 91.0323 2.12488 92.3368 2.0226C93.5834 1.92374 94.6402 2.14419 95.6641 2.78283C96.4288 3.25896 96.8322 3.94192 97.2197 4.78737C98.3675 7.29191 99.78 9.59645 102.572 10.6544C104.142 11.2487 105.749 11.3817 107.371 11.5612C108.399 11.6749 109.444 11.7362 110.448 11.9646C111.936 12.3044 113.237 13.0635 114.347 14.1351C114.661 14.4373 114.99 14.7328 115.25 15.0805C116.287 16.4601 117.827 16.8214 119.356 17.1896C119.84 17.3067 120.348 17.3339 120.848 17.3601C121.607 17.401 122.271 17.7146 122.922 18.0601C123.189 18.201 123.423 18.4067 123.35 18.7748C121.703 19.5987 118.971 19.4203 115.839 18.2442C116.545 19.8635 116.68 21.5623 117.475 23.0589C117.705 23.4896 117.972 23.8657 118.371 24.1271C118.904 24.4726 119.138 24.9907 119.158 25.5816C119.195 26.7078 119.506 27.7839 119.679 28.8839C119.841 29.9169 119.333 30.5691 118.288 30.6294C118.054 30.6399 117.82 30.6391 117.587 30.6271C117.353 30.618 117.102 30.6169 116.984 30.3555C116.857 30.0737 116.964 29.835 117.157 29.6191C117.43 29.3123 117.99 29.2373 117.919 28.6521C117.824 27.8828 117.774 27.093 117.373 26.4101C116.919 25.6339 114.794 24.1487 113.737 23.851L113.738 23.8521Z" fill="#5A4FCF"/>
<path d="M4.51204 41.834C4.51204 40.2287 4.77338 38.978 5.29604 38.082C5.81871 37.1767 6.73338 36.724 8.04004 36.724C9.33738 36.724 10.2474 37.1767 10.77 38.082C11.2927 38.978 11.554 40.2287 11.554 41.834C11.554 43.4673 11.2927 44.7367 10.77 45.642C10.2474 46.5473 9.33738 47 8.04004 47C6.73338 47 5.81871 46.5473 5.29604 45.642C4.77338 44.7367 4.51204 43.4673 4.51204 41.834ZM10.294 41.834C10.294 41.022 10.238 40.336 10.126 39.776C10.0234 39.2067 9.80404 38.7493 9.46804 38.404C9.14138 38.0587 8.66538 37.886 8.04004 37.886C7.40538 37.886 6.92004 38.0587 6.58404 38.404C6.25738 38.7493 6.03804 39.2067 5.92604 39.776C5.82338 40.336 5.77204 41.022 5.77204 41.834C5.77204 42.674 5.82338 43.3787 5.92604 43.948C6.03804 44.5173 6.25738 44.9747 6.58404 45.32C6.92004 45.6653 7.40538 45.838 8.04004 45.838C8.66538 45.838 9.14138 45.6653 9.46804 45.32C9.80404 44.9747 10.0234 44.5173 10.126 43.948C10.238 43.3787 10.294 42.674 10.294 41.834ZM17.7971 47L14.7871 43.612V47H13.5131V36.64H14.7871V42.73L17.7411 39.328H19.5191L15.9071 43.15L19.5331 47H17.7971ZM23.8821 39.202C24.5448 39.202 25.1235 39.3467 25.6181 39.636C26.1221 39.9253 26.4955 40.2893 26.7381 40.728V39.328H28.0261V47.168C28.0261 47.868 27.8768 48.4887 27.5781 49.03C27.2795 49.5807 26.8501 50.01 26.2901 50.318C25.7395 50.626 25.0955 50.78 24.3581 50.78C23.3501 50.78 22.5101 50.542 21.8381 50.066C21.1661 49.59 20.7695 48.9413 20.6481 48.12H21.9081C22.0481 48.5867 22.3375 48.96 22.7761 49.24C23.2148 49.5293 23.7421 49.674 24.3581 49.674C25.0581 49.674 25.6275 49.4547 26.0661 49.016C26.5141 48.5773 26.7381 47.9613 26.7381 47.168V45.558C26.4861 46.006 26.1128 46.3793 25.6181 46.678C25.1235 46.9767 24.5448 47.126 23.8821 47.126C23.2008 47.126 22.5801 46.958 22.0201 46.622C21.4695 46.286 21.0355 45.8147 20.7181 45.208C20.4008 44.6013 20.2421 43.9107 20.2421 43.136C20.2421 42.352 20.4008 41.666 20.7181 41.078C21.0355 40.4807 21.4695 40.0187 22.0201 39.692C22.5801 39.3653 23.2008 39.202 23.8821 39.202ZM26.7381 43.15C26.7381 42.5713 26.6215 42.0673 26.3881 41.638C26.1548 41.2087 25.8375 40.882 25.4361 40.658C25.0441 40.4247 24.6101 40.308 24.1341 40.308C23.6581 40.308 23.2241 40.42 22.8321 40.644C22.4401 40.868 22.1275 41.1947 21.8941 41.624C21.6608 42.0533 21.5441 42.5573 21.5441 43.136C21.5441 43.724 21.6608 44.2373 21.8941 44.676C22.1275 45.1053 22.4401 45.4367 22.8321 45.67C23.2241 45.894 23.6581 46.006 24.1341 46.006C24.6101 46.006 25.0441 45.894 25.4361 45.67C25.8375 45.4367 26.1548 45.1053 26.3881 44.676C26.6215 44.2373 26.7381 43.7287 26.7381 43.15Z" fill="#666666"/>
<path d="M80.144 42L75.144 39.1132V44.8868L80.144 42ZM35.644 42L40.644 44.8868V39.1132L35.644 42ZM75.644 41.5H40.144V42.5H75.644V41.5Z" fill="#666666"/>
<path d="M86.704 44.746V43.78L91.618 36.976H93.144V43.64H94.544V44.746H93.144V47H91.884V44.746H86.704ZM91.94 38.306L88.174 43.64H91.94V38.306ZM95.8167 41.834C95.8167 40.2287 96.0781 38.978 96.6007 38.082C97.1234 37.1767 98.0381 36.724 99.3447 36.724C100.642 36.724 101.552 37.1767 102.075 38.082C102.597 38.978 102.859 40.2287 102.859 41.834C102.859 43.4673 102.597 44.7367 102.075 45.642C101.552 46.5473 100.642 47 99.3447 47C98.0381 47 97.1234 46.5473 96.6007 45.642C96.0781 44.7367 95.8167 43.4673 95.8167 41.834ZM101.599 41.834C101.599 41.022 101.543 40.336 101.431 39.776C101.328 39.2067 101.109 38.7493 100.773 38.404C100.446 38.0587 99.9701 37.886 99.3447 37.886C98.7101 37.886 98.2247 38.0587 97.8887 38.404C97.5621 38.7493 97.3427 39.2067 97.2307 39.776C97.1281 40.336 97.0767 41.022 97.0767 41.834C97.0767 42.674 97.1281 43.3787 97.2307 43.948C97.3427 44.5173 97.5621 44.9747 97.8887 45.32C98.2247 45.6653 98.7101 45.838 99.3447 45.838C99.9701 45.838 100.446 45.6653 100.773 45.32C101.109 44.9747 101.328 44.5173 101.431 43.948C101.543 43.3787 101.599 42.674 101.599 41.834ZM109.102 47L106.092 43.612V47H104.818V36.64H106.092V42.73L109.046 39.328H110.824L107.212 43.15L110.838 47H109.102ZM115.187 39.202C115.849 39.202 116.428 39.3467 116.923 39.636C117.427 39.9253 117.8 40.2893 118.043 40.728V39.328H119.331V47.168C119.331 47.868 119.181 48.4887 118.883 49.03C118.584 49.5807 118.155 50.01 117.595 50.318C117.044 50.626 116.4 50.78 115.663 50.78C114.655 50.78 113.815 50.542 113.143 50.066C112.471 49.59 112.074 48.9413 111.953 48.12H113.213C113.353 48.5867 113.642 48.96 114.081 49.24C114.519 49.5293 115.047 49.674 115.663 49.674C116.363 49.674 116.932 49.4547 117.371 49.016C117.819 48.5773 118.043 47.9613 118.043 47.168V45.558C117.791 46.006 117.417 46.3793 116.923 46.678C116.428 46.9767 115.849 47.126 115.187 47.126C114.505 47.126 113.885 46.958 113.325 46.622C112.774 46.286 112.34 45.8147 112.023 45.208C111.705 44.6013 111.547 43.9107 111.547 43.136C111.547 42.352 111.705 41.666 112.023 41.078C112.34 40.4807 112.774 40.0187 113.325 39.692C113.885 39.3653 114.505 39.202 115.187 39.202ZM118.043 43.15C118.043 42.5713 117.926 42.0673 117.693 41.638C117.459 41.2087 117.142 40.882 116.741 40.658C116.349 40.4247 115.915 40.308 115.439 40.308C114.963 40.308 114.529 40.42 114.137 40.644C113.745 40.868 113.432 41.1947 113.199 41.624C112.965 42.0533 112.849 42.5573 112.849 43.136C112.849 43.724 112.965 44.2373 113.199 44.676C113.432 45.1053 113.745 45.4367 114.137 45.67C114.529 45.894 114.963 46.006 115.439 46.006C115.915 46.006 116.349 45.894 116.741 45.67C117.142 45.4367 117.459 45.1053 117.693 44.676C117.926 44.2373 118.043 43.7287 118.043 43.15Z" fill="#666666"/>
<defs>
<clipPath id="clip0_361_449">
<rect width="30" height="32" fill="white"/>
</clipPath>
<clipPath id="clip1_361_449">
<rect width="32" height="32" fill="white" transform="translate(42)"/>
</clipPath>
</defs>
</svg>
