<svg width="32" height="32" viewBox="0 0 32 32" fill="none" xmlns="http://www.w3.org/2000/svg">
<path d="M26.8333 10.5002H23.3333V8.16683C23.3333 6.87183 22.295 5.8335 21 5.8335H14C12.705 5.8335 11.6666 6.87183 11.6666 8.16683V10.5002H8.16665C6.87165 10.5002 5.83331 11.5385 5.83331 12.8335V25.6668C5.83331 26.9618 6.87165 28.0002 8.16665 28.0002H26.8333C28.1283 28.0002 29.1666 26.9618 29.1666 25.6668V12.8335C29.1666 11.5385 28.1283 10.5002 26.8333 10.5002ZM14 8.16683H21V10.5002H14V8.16683ZM26.8333 25.6668H8.16665V23.3335H26.8333V25.6668ZM26.8333 19.8335H8.16665V12.8335H11.6666V15.1668H14V12.8335H21V15.1668H23.3333V12.8335H26.8333V19.8335Z" fill="#5A4FCF"/>
</svg>
