<svg width="32" height="33" viewBox="0 0 32 33" fill="none" xmlns="http://www.w3.org/2000/svg">
<path d="M15.9998 29.8332C8.63584 29.8332 2.6665 23.8638 2.6665 16.4998C2.6665 9.13584 8.63584 3.1665 15.9998 3.1665C23.3638 3.1665 29.3332 9.13584 29.3332 16.4998C29.3332 23.8638 23.3638 29.8332 15.9998 29.8332ZM15.9998 27.1665C18.8288 27.1665 21.5419 26.0427 23.5423 24.0423C25.5427 22.0419 26.6665 19.3288 26.6665 16.4998C26.6665 13.6709 25.5427 10.9578 23.5423 8.95736C21.5419 6.95698 18.8288 5.83317 15.9998 5.83317C13.1709 5.83317 10.4578 6.95698 8.45736 8.95736C6.45698 10.9578 5.33317 13.6709 5.33317 16.4998C5.33317 19.3288 6.45698 22.0419 8.45736 24.0423C10.4578 26.0427 13.1709 27.1665 15.9998 27.1665ZM17.3332 16.4998H22.6665V19.1665H14.6665V9.83317H17.3332V16.4998Z" fill="#5A4FCF"/>
</svg>
