<svg width="48" height="24" viewBox="0 0 48 24" fill="none" xmlns="http://www.w3.org/2000/svg">
<g clip-path="url(#clip0_361_313)">
<path d="M9.96499 15.6595L15.9526 19.2736L14.3638 12.4624L19.6538 7.87945L12.6879 7.28828L9.96558 0.864746L7.24323 7.28828L0.277344 7.87945L5.56734 12.4624L3.97852 19.2736L9.96499 15.6595Z" fill="#FFC058"/>
</g>
<path d="M32.368 7.696H26.752V11.344C26.9973 11.0027 27.36 10.7253 27.84 10.512C28.32 10.288 28.8373 10.176 29.392 10.176C30.2773 10.176 30.9973 10.3627 31.552 10.736C32.1067 11.0987 32.5013 11.5733 32.736 12.16C32.9813 12.736 33.104 13.3493 33.104 14C33.104 14.768 32.96 15.456 32.672 16.064C32.384 16.672 31.9413 17.152 31.344 17.504C30.7573 17.856 30.0267 18.032 29.152 18.032C28.032 18.032 27.1253 17.744 26.432 17.168C25.7387 16.592 25.3173 15.824 25.168 14.864H26.592C26.7307 15.472 27.024 15.9467 27.472 16.288C27.92 16.6293 28.4853 16.8 29.168 16.8C30.0107 16.8 30.6453 16.5493 31.072 16.048C31.4987 15.536 31.712 14.864 31.712 14.032C31.712 13.2 31.4987 12.56 31.072 12.112C30.6453 11.6533 30.016 11.424 29.184 11.424C28.6187 11.424 28.1227 11.5627 27.696 11.84C27.28 12.1067 26.976 12.4747 26.784 12.944H25.408V6.416H32.368V7.696ZM35.7429 18.096C35.4655 18.096 35.2309 18 35.0389 17.808C34.8469 17.616 34.7509 17.3813 34.7509 17.104C34.7509 16.8267 34.8469 16.592 35.0389 16.4C35.2309 16.208 35.4655 16.112 35.7429 16.112C36.0095 16.112 36.2335 16.208 36.4149 16.4C36.6069 16.592 36.7029 16.8267 36.7029 17.104C36.7029 17.3813 36.6069 17.616 36.4149 17.808C36.2335 18 36.0095 18.096 35.7429 18.096ZM38.3983 12.096C38.3983 10.2613 38.6969 8.832 39.2943 7.808C39.8916 6.77333 40.9369 6.256 42.4303 6.256C43.9129 6.256 44.9529 6.77333 45.5503 7.808C46.1476 8.832 46.4462 10.2613 46.4462 12.096C46.4462 13.9627 46.1476 15.4133 45.5503 16.448C44.9529 17.4827 43.9129 18 42.4303 18C40.9369 18 39.8916 17.4827 39.2943 16.448C38.6969 15.4133 38.3983 13.9627 38.3983 12.096ZM45.0063 12.096C45.0063 11.168 44.9423 10.384 44.8143 9.744C44.6969 9.09333 44.4463 8.57067 44.0623 8.176C43.6889 7.78133 43.1449 7.584 42.4303 7.584C41.7049 7.584 41.1503 7.78133 40.7663 8.176C40.3929 8.57067 40.1423 9.09333 40.0143 9.744C39.8969 10.384 39.8383 11.168 39.8383 12.096C39.8383 13.056 39.8969 13.8613 40.0143 14.512C40.1423 15.1627 40.3929 15.6853 40.7663 16.08C41.1503 16.4747 41.7049 16.672 42.4303 16.672C43.1449 16.672 43.6889 16.4747 44.0623 16.08C44.4463 15.6853 44.6969 15.1627 44.8143 14.512C44.9423 13.8613 45.0063 13.056 45.0063 12.096Z" fill="#666666"/>
<defs>
<clipPath id="clip0_361_313">
<rect width="20" height="20" fill="white"/>
</clipPath>
</defs>
</svg>
