<svg xmlns="http://www.w3.org/2000/svg" width="106" height="64" fill="none" viewBox="0 0 106 64">
  <path fill="#fefefe" d="M2.8 53.51c-.856-.37-1.534-.9-2.03-1.595-.5-.694-.755-1.515-.77-2.46h3.295c.044.636.267 1.138.67 1.507.402.37.954.554 1.657.554.717 0 1.281-.174 1.692-.521.409-.347.615-.801.615-1.362 0-.459-.14-.835-.418-1.13a2.938 2.938 0 0 0-1.043-.698c-.417-.17-.992-.358-1.725-.565-.995-.296-1.804-.587-2.426-.875a4.24 4.24 0 0 1-1.602-1.308c-.448-.583-.67-1.362-.67-2.338 0-.915.226-1.713.68-2.392.454-.679 1.09-1.2 1.911-1.561.82-.363 1.757-.544 2.811-.544 1.58 0 2.866.388 3.854 1.163s1.533 1.858 1.636 3.246H7.556a1.784 1.784 0 0 0-.672-1.319c-.416-.346-.97-.52-1.656-.52-.602 0-1.08.155-1.439.466-.36.31-.539.76-.539 1.35 0 .415.136.759.407 1.032.27.273.607.494 1.01.664.402.17.97.365 1.702.587.996.296 1.808.591 2.438.886a4.4 4.4 0 0 1 1.624 1.33c.455.59.682 1.366.682 2.327 0 .827-.214 1.595-.638 2.303-.424.709-1.047 1.274-1.866 1.696-.82.42-1.793.63-2.921.63-1.07 0-2.031-.183-2.887-.553Zm19.314-7.678a3.129 3.129 0 0 0-1.187-1.24 3.152 3.152 0 0 0-1.601-.432c-.572 0-1.1.14-1.582.421-.483.28-.875.691-1.174 1.23-.301.539-.45 1.178-.45 1.916 0 .739.149 1.384.45 1.938.299.554.695.98 1.185 1.275a3 3 0 0 0 1.57.444 3.14 3.14 0 0 0 2.789-1.673c.292-.54.44-1.186.44-1.939 0-.754-.148-1.4-.44-1.94Zm-8.4-1.406c.49-.96 1.156-1.699 1.998-2.215.843-.517 1.783-.776 2.823-.776.908 0 1.701.184 2.383.554.68.37 1.225.835 1.635 1.395v-1.75h3.097v12.274h-3.097v-1.794c-.395.576-.94 1.052-1.636 1.43-.696.376-1.497.565-2.405.565a5.142 5.142 0 0 1-2.8-.798c-.842-.533-1.508-1.282-1.998-2.25-.49-.967-.735-2.078-.735-3.334 0-1.241.245-2.34.735-3.3Zm20.522-.244h-2.131v9.726h-3.118v-9.726h-1.383v-2.548h1.383v-.62c0-1.507.424-2.615 1.274-3.323.85-.71 2.13-1.041 3.843-.997v2.614c-.746-.015-1.267.111-1.559.377-.293.265-.44.745-.44 1.44v.51h2.13v2.547Zm10.123 2.437c-.015-.798-.3-1.436-.857-1.916-.556-.48-1.236-.721-2.041-.721-.762 0-1.402.233-1.923.699-.519.465-.838 1.111-.954 1.938h5.775Zm3.097 2.083H38.56c.074.887.38 1.581.922 2.082.543.502 1.21.754 1.999.754 1.142 0 1.955-.494 2.438-1.485h3.316a5.598 5.598 0 0 1-2.02 2.914c-.997.761-2.218 1.142-3.668 1.142-1.171 0-2.222-.263-3.151-.787a5.51 5.51 0 0 1-2.174-2.227c-.52-.96-.78-2.068-.78-3.323 0-1.271.256-2.385.77-3.347a5.4 5.4 0 0 1 2.151-2.215c.922-.516 1.984-.775 3.184-.775 1.157 0 2.192.251 3.108.753a5.283 5.283 0 0 1 2.13 2.138c.505.924.757 1.983.757 3.18 0 .442-.03.841-.087 1.196Zm9.727-3.821c.41-.392.615-.943.615-1.652 0-1.507-.834-2.26-2.504-2.26h-2.438v4.498h2.438c.85 0 1.479-.195 1.89-.586Zm3.195.674c-.388.724-.995 1.308-1.822 1.751-.828.443-1.87.665-3.13.665h-2.57v5.938h-3.074V38.444h5.645c1.185 0 2.195.207 3.03.62.835.414 1.46.983 1.878 1.706.416.725.625 1.544.625 2.46 0 .828-.194 1.603-.582 2.325Zm11.1.277a3.126 3.126 0 0 0-2.788-1.672c-.571 0-1.098.14-1.582.421-.482.28-.874.691-1.174 1.23-.3.539-.45 1.178-.45 1.916 0 .739.15 1.384.45 1.938.3.554.695.98 1.187 1.275.49.295 1.013.444 1.569.444a3.146 3.146 0 0 0 2.788-1.673c.294-.54.44-1.186.44-1.939 0-.754-.146-1.4-.44-1.94Zm-8.398-1.406c.49-.96 1.155-1.699 1.997-2.215.842-.517 1.783-.776 2.822-.776.908 0 1.702.184 2.383.554.681.37 1.226.835 1.636 1.395v-1.75h3.096v12.274h-3.096v-1.794c-.395.576-.941 1.052-1.636 1.43-.696.376-1.497.565-2.404.565a5.144 5.144 0 0 1-2.801-.798c-.842-.533-1.507-1.282-1.997-2.25-.492-.967-.737-2.078-.737-3.334 0-1.241.245-2.34.736-3.3Zm31.808-2.792L91.33 53.908h-3.316l-2.218-8.574-2.217 8.574h-3.338l-3.58-12.274h3.118l2.153 9.35 2.327-9.35h3.25l2.284 9.328 2.153-9.328h2.942Zm3.645 11.93c-.791-.36-1.416-.851-1.878-1.472a3.76 3.76 0 0 1-.757-2.06h3.097c.057.473.288.863.69 1.174.404.31.904.464 1.505.464.586 0 1.043-.117 1.373-.353.329-.237.494-.539.494-.91 0-.398-.202-.696-.604-.897-.403-.198-1.043-.416-1.921-.653-.909-.221-1.65-.45-2.23-.687a3.86 3.86 0 0 1-1.492-1.085c-.418-.487-.626-1.144-.626-1.973a3.2 3.2 0 0 1 .581-1.86c.388-.562.945-1.005 1.67-1.33.724-.324 1.576-.488 2.557-.488 1.45 0 2.606.367 3.47 1.098.864.73 1.34 1.717 1.427 2.957h-2.942c-.044-.487-.244-.875-.604-1.163-.359-.287-.838-.432-1.438-.432-.557 0-.985.103-1.285.31a.992.992 0 0 0-.45.864c0 .414.205.728.616.942.409.214 1.045.432 1.91.653.878.222 1.603.45 2.173.687a3.847 3.847 0 0 1 1.483 1.097c.417.494.633 1.149.648 1.96 0 .71-.195 1.345-.583 1.907-.388.561-.944 1-1.669 1.318-.724.317-1.569.477-2.535.477-.996 0-1.889-.182-2.68-.544Zm-78.767 7.662a1.67 1.67 0 0 1 1.508-.884c.396 0 .735.096 1.018.285.282.19.488.456.617.801h-.417a1.226 1.226 0 0 0-.464-.569 1.348 1.348 0 0 0-.754-.203c-.26 0-.495.06-.703.183-.209.124-.37.3-.49.53-.118.23-.178.497-.178.802 0 .303.06.57.179.8a1.285 1.285 0 0 0 1.192.71c.295 0 .546-.066.754-.202a1.21 1.21 0 0 0 .464-.56h.417a1.597 1.597 0 0 1-.62.794c-.284.188-.623.28-1.015.28-.325 0-.62-.076-.883-.232a1.668 1.668 0 0 1-.625-.647 1.926 1.926 0 0 1-.228-.943c0-.351.076-.667.228-.945Zm4.95-.842v2.253c0 .355.083.618.251.789.167.171.397.255.688.255.29 0 .519-.084.682-.252.165-.17.247-.434.247-.792v-2.253h.355v2.248c0 .454-.12.795-.357 1.024-.24.23-.55.344-.932.344-.383 0-.693-.114-.932-.344-.239-.229-.358-.57-.358-1.024v-2.248h.355Zm4.131 3.58h-.355v-3.58h.355v3.58Zm3.75-.689c.258-.262.387-.626.387-1.094 0-.47-.13-.84-.388-1.104-.26-.264-.635-.396-1.129-.396h-.696v2.985h.696c.494 0 .87-.13 1.13-.391Zm-.12-2.676c.28.143.496.35.645.62.148.268.223.59.223.962 0 .369-.075.687-.223.956a1.477 1.477 0 0 1-.645.614c-.281.142-.618.213-1.01.213h-1.051v-3.58h1.051c.392 0 .729.071 1.01.215Zm4.234 2.218-.701-1.936-.7 1.936h1.401Zm.106.297h-1.614l-.31.85h-.375l1.294-3.534h.401l1.289 3.534h-.376l-.309-.85ZM42.3 60.43v3.534h-.355V61.14l-1.248 2.823h-.26l-1.248-2.813v2.813h-.356V60.43h.376l1.356 3.063 1.355-3.063h.38Zm3.874 3.073c.21-.124.375-.3.496-.53a1.68 1.68 0 0 0 .184-.802c0-.305-.061-.57-.184-.8a1.302 1.302 0 0 0-.496-.527 1.39 1.39 0 0 0-.711-.184c-.265 0-.5.062-.711.184-.21.124-.376.299-.497.528a1.67 1.67 0 0 0-.183.799c0 .303.06.572.183.802a1.306 1.306 0 0 0 1.207.714c.265 0 .501-.062.712-.184Zm-1.605.263a1.677 1.677 0 0 1-.632-.65 1.927 1.927 0 0 1-.23-.945c0-.352.076-.667.23-.945a1.67 1.67 0 0 1 .633-.65c.267-.156.565-.234.893-.234.332 0 .631.078.898.234.267.155.478.371.63.65.152.278.228.593.228.945 0 .351-.076.667-.228.945a1.655 1.655 0 0 1-.63.65 1.747 1.747 0 0 1-.898.234c-.328 0-.627-.078-.894-.234Zm4.52.11a1.017 1.017 0 0 1-.419-.343.917.917 0 0 1-.162-.49h.376a.73.73 0 0 0 .228.457c.136.131.335.197.595.197.24 0 .43-.062.57-.187a.604.604 0 0 0 .211-.474.563.563 0 0 0-.116-.37.71.71 0 0 0-.29-.21 4.295 4.295 0 0 0-.477-.152 4.156 4.156 0 0 1-.563-.19.89.89 0 0 1-.355-.287c-.099-.13-.148-.304-.148-.527 0-.184.048-.349.143-.493a.95.95 0 0 1 .4-.342 1.37 1.37 0 0 1 .594-.123c.328 0 .593.082.795.244.2.163.317.37.348.627h-.387a.643.643 0 0 0-.238-.391c-.135-.115-.318-.172-.548-.172a.824.824 0 0 0-.534.172.571.571 0 0 0-.212.468c0 .15.039.272.116.364a.759.759 0 0 0 .292.21c.117.048.274.098.475.154.23.064.416.128.558.192a.899.899 0 0 1 .36.288c.1.13.148.305.148.523a.927.927 0 0 1-.133.477.973.973 0 0 1-.39.364 1.3 1.3 0 0 1-.619.137c-.234 0-.439-.04-.617-.122Zm5.424-2.65a1.68 1.68 0 0 1 1.508-.884c.396 0 .735.096 1.018.285.282.19.488.456.617.801h-.417a1.226 1.226 0 0 0-.464-.569 1.348 1.348 0 0 0-.754-.203c-.26 0-.495.06-.703.183-.207.124-.37.3-.49.53-.118.23-.178.497-.178.802 0 .303.06.57.179.8.118.227.282.403.489.527.208.122.443.184.703.184.295 0 .546-.067.754-.203a1.21 1.21 0 0 0 .464-.56h.417a1.596 1.596 0 0 1-.62.794c-.283.188-.623.28-1.015.28a1.677 1.677 0 0 1-1.508-.88 1.926 1.926 0 0 1-.228-.942c0-.351.076-.667.228-.945Zm6.914 2.277c.21-.124.376-.3.498-.53.121-.23.182-.499.182-.802 0-.305-.06-.57-.182-.8a1.313 1.313 0 0 0-1.209-.71c-.263 0-.5.061-.71.183-.21.124-.375.299-.498.528a1.67 1.67 0 0 0-.182.799c0 .303.06.572.182.802.123.23.289.406.498.53.21.122.447.184.71.184.265 0 .502-.062.711-.184Zm-1.604.263a1.666 1.666 0 0 1-.631-.65 1.914 1.914 0 0 1-.231-.945c0-.352.076-.667.23-.945.154-.279.365-.495.632-.65.267-.156.565-.234.893-.234.332 0 .631.078.9.234.267.155.476.371.628.65.153.278.229.593.229.945 0 .351-.076.667-.229.945a1.651 1.651 0 0 1-.628.65 1.754 1.754 0 0 1-.9.234c-.328 0-.626-.078-.893-.234Zm6.737.198h-.356l-1.965-3.011v3.01h-.355v-3.58h.355l1.965 3.006v-3.005h.356v3.58Zm5.67-1.147-.7-1.936-.702 1.936h1.401Zm.106.297h-1.614l-.31.85h-.375l1.294-3.534h.4l1.29 3.534h-.375l-.31-.85Zm5.483-2.684v3.534h-.356V61.14l-1.249 2.823h-.258l-1.249-2.813v2.813h-.356V60.43h.376l1.355 3.063 1.356-3.063h.38Zm3.872 3.073c.21-.124.376-.3.498-.53.122-.23.182-.499.182-.802 0-.305-.06-.57-.182-.8a1.314 1.314 0 0 0-1.208-.71c-.264 0-.501.061-.71.183-.21.124-.376.299-.499.528-.12.229-.182.494-.182.799 0 .303.061.572.182.802.123.23.288.406.498.53.21.122.447.184.711.184.263 0 .5-.062.71-.184Zm-1.603.263a1.66 1.66 0 0 1-.633-.65 1.927 1.927 0 0 1-.23-.945c0-.352.077-.667.23-.945.154-.279.365-.495.633-.65.267-.156.565-.234.893-.234.33 0 .63.078.898.234.267.155.477.371.63.65.151.278.228.593.228.945 0 .351-.077.667-.229.945a1.651 1.651 0 0 1-.629.65 1.753 1.753 0 0 1-.898.234c-.328 0-.626-.078-.893-.234Zm4.415-1.59h.716c.277 0 .487-.068.627-.205.14-.136.21-.319.21-.548 0-.235-.067-.418-.202-.545-.136-.128-.349-.192-.64-.192h-.71v1.49Zm1.534 1.788-.879-1.496h-.655v1.495h-.355v-3.58h1.066c.396 0 .697.096.901.288.205.19.307.441.307.752 0 .26-.074.481-.22.664-.148.182-.365.3-.653.356l.914 1.52h-.426ZM46.45 28.712c-.652-1.106-1.773-3.576-1.037-6.603.194-.798.528-1.068.695-1.102a.32.32 0 0 1 .049-.004c.22 0 .44.279.502.364.69.958 1.04 3.448-.209 7.345Zm6.25-10.456c-.346-.064-.913-.125-1.52-.19-.63-.065-1.283-.134-1.613-.202-2.666-.555-4.39-2.764-4.39-5.628 0-3.19 2.608-5.786 5.838-5.786h.002l.057-.001c1.668-.112 3.62.271 4.469.464.046.827.214 5.13-1.213 6.466a.798.798 0 0 0-.066.05 1.7 1.7 0 0 1-2.387-.19l-.02-.025a1.689 1.689 0 0 1-.349-.706.815.815 0 0 0-.016-.058c-.157-.484-.146-.907.033-1.255a.717.717 0 0 0-.07-.763.699.699 0 0 0-.77-.237c-.368.12-.783.06-1.23-.177a2.1 2.1 0 0 0-.056-.026 1.683 1.683 0 0 1-.632-.463l-.019-.024a1.717 1.717 0 0 1-.317-.594.701.701 0 1 0-1.342.414c.12.393.312.754.568 1.069l.03.04c.313.372.698.66 1.137.85.385.2.774.324 1.16.368-.022.39.034.798.164 1.206a3.109 3.109 0 0 0 .695 1.337 3.083 3.083 0 0 0 4.243.383.573.573 0 0 0 .095-.07c2.253-1.952 1.782-7.594 1.72-8.23a.709.709 0 0 0-.522-.617c-.119-.032-2.945-.783-5.379-.627-3.983 0-7.225 3.231-7.225 7.202 0 3.51 2.214 6.33 5.508 7.014.4.083 1.087.156 1.75.225.524.056 1.115.117 1.408.173 2.625.495 4.192 2.58 4.192 5.577 0 3.191-2.572 5.787-5.735 5.787a5.643 5.643 0 0 1-3.377-1.107c1.446-4.106 1.548-7.604.27-9.371-.522-.725-1.237-1.059-1.955-.915-.843.167-1.494.953-1.786 2.152-1.174 4.829 1.633 8.348 1.754 8.497.015.018.03.034.046.05l.019.02a37.304 37.304 0 0 1-2.006 4.22.712.712 0 0 0 .274.962.701.701 0 0 0 .953-.276 39.03 39.03 0 0 0 1.914-3.98 7.04 7.04 0 0 0 3.894 1.164c3.936 0 7.139-3.231 7.139-7.203 0-3.678-2.045-6.348-5.337-6.97Zm6.316-9.083c-.354.356-.55.83-.551 1.333-.002.504.192.979.544 1.336a1.864 1.864 0 0 0 2.646.007c.354-.357.55-.83.551-1.333a1.877 1.877 0 0 0-.545-1.336 1.86 1.86 0 0 0-2.645-.007Zm-6.514-5.4h.004a1.879 1.879 0 0 0 1.87-1.882 1.884 1.884 0 0 0-.544-1.335A1.851 1.851 0 0 0 52.513 0a1.871 1.871 0 0 0-1.325.549c-.354.356-.55.83-.551 1.333-.001.505.192.98.545 1.335a1.85 1.85 0 0 0 1.321.557Zm6.535 3.255a1.858 1.858 0 0 0 2.647.006 1.88 1.88 0 0 0 .55-1.333 1.886 1.886 0 0 0-.544-1.336 1.86 1.86 0 0 0-2.645-.006 1.901 1.901 0 0 0-.008 2.669Zm-.704-6.05a1.852 1.852 0 0 0-1.322-.556h-.005a1.85 1.85 0 0 0-1.319.55 1.901 1.901 0 0 0-.007 2.668 1.858 1.858 0 0 0 2.646.007 1.902 1.902 0 0 0 .007-2.669Z"/>
</svg>
